<?xml version="1.0" encoding="utf-8"?>
<!-- Generator: Adobe Illustrator 16.0.0, SVG Export Plug-In . SVG Version: 6.00 Build 0)  -->
<!DOCTYPE svg PUBLIC "-//W3C//DTD SVG 1.1//EN" "http://www.w3.org/Graphics/SVG/1.1/DTD/svg11.dtd">
<svg version="1.1" id="Layer_1" xmlns="http://www.w3.org/2000/svg" xmlns:xlink="http://www.w3.org/1999/xlink" x="0px" y="0px"
	 width="290.117px" height="201px" viewBox="0 0 290.117 201" enable-background="new 0 0 290.117 201" xml:space="preserve">
<g>
	<defs>
		<polyline id="SVGID_1_" points="1866.379,568.061 1866.379,1372.318 1430.172,1372.318 		"/>
	</defs>
	<clipPath id="SVGID_2_">
		<use xlink:href="#SVGID_1_"  overflow="visible"/>
	</clipPath>
</g>
<g>
	<defs>
		<polyline id="SVGID_3_" points="1866.379,568.061 1866.379,1372.318 1430.172,1372.318 		"/>
	</defs>
	<clipPath id="SVGID_4_">
		<use xlink:href="#SVGID_3_"  overflow="visible"/>
	</clipPath>
</g>
<g>
	<defs>
		<polyline id="SVGID_5_" points="1866.379,568.061 1866.379,1372.318 1430.172,1372.318 		"/>
	</defs>
	<clipPath id="SVGID_6_">
		<use xlink:href="#SVGID_5_"  overflow="visible"/>
	</clipPath>
</g>
<g>
	<defs>
		<polyline id="SVGID_7_" points="1866.379,568.061 1866.379,1372.318 1430.172,1372.318 		"/>
	</defs>
	<clipPath id="SVGID_8_">
		<use xlink:href="#SVGID_7_"  overflow="visible"/>
	</clipPath>
</g>
<g>
	<defs>
		<polyline id="SVGID_9_" points="1866.379,568.061 1866.379,1372.318 1430.172,1372.318 		"/>
	</defs>
	<clipPath id="SVGID_10_">
		<use xlink:href="#SVGID_9_"  overflow="visible"/>
	</clipPath>
</g>
<g>
	<path fill-rule="evenodd" clip-rule="evenodd" fill="#FFFFFF" d="M63.07,116.834C32.347,116.92,6.573,92.077,6.592,60.342
		C6.61,28.84,32.146,3.723,63.426,3.907c30.716,0.182,56.22,24.968,56.104,56.7C119.413,92.369,93.583,116.918,63.07,116.834z
		 M63.068,13.102c-26.09,0.006-47.298,21.178-47.297,47.23c0,25.703,20.556,47.33,47.286,47.326
		c27.034-0.004,47.314-21.996,47.286-47.316C110.314,34.482,89.322,13.104,63.068,13.102z"/>
	<path fill-rule="evenodd" clip-rule="evenodd" fill="#FFFFFF" d="M146.956,195.826c-2.861,0-5.645-0.006-8.428,0.006
		c-0.576,0.002-0.556-0.369-0.556-0.758c0.001-1.469,0-2.938,0-4.419c-0.105,0.026-0.192,0.021-0.211,0.056
		c-2.06,3.618-5.406,5.34-9.311,5.971c-4.807,0.777-9.49,0.301-13.787-2.258c-4.7-2.799-7.375-7.062-8.561-12.271
		c-1.565-6.881-1.497-13.699,1.816-20.123c3.162-6.129,8.327-9.207,15.23-9.37c4.189-0.099,8.076,0.827,11.465,3.393
		c1.088,0.823,2.104,1.745,2.951,2.453c0-6.56,0-13.562,0-20.633c3.154,0,6.235,0,9.391,0
		C146.956,157.156,146.956,176.412,146.956,195.826z M137.831,174.641c0.088-0.015,0.176-0.03,0.264-0.046
		c-0.437-2.29-0.665-4.644-1.354-6.854c-1.438-4.621-5.11-7.357-9.688-7.552c-5.013-0.214-8.867,2.007-10.765,6.563
		c-2.206,5.293-2.358,10.727-0.097,16.051c1.697,3.994,4.727,6.369,9.204,6.628c4.627,0.269,8.041-1.676,10.299-5.673
		C137.29,180.936,137.815,177.844,137.831,174.641z"/>
	<path fill-rule="evenodd" clip-rule="evenodd" fill="#FFFFFF" d="M253.817,170.416c2.051-2.015,3.969-3.856,5.841-5.744
		c3.441-3.471,6.851-6.973,10.287-10.447c0.202-0.205,0.521-0.412,0.787-0.414c3.664-0.026,7.327-0.018,11.124,0.178
		c-2.646,2.533-5.293,5.066-7.938,7.602s-5.285,5.074-7.999,7.682c5.834,8.781,11.664,17.557,17.606,26.501
		c-0.449,0.024-0.735,0.055-1.021,0.056c-3.196,0.002-6.393-0.02-9.589,0.018c-0.686,0.009-1.059-0.225-1.416-0.797
		c-3.897-6.238-7.822-12.461-11.741-18.686c-0.148-0.235-0.311-0.461-0.531-0.785c-1.736,1.692-3.445,3.33-5.105,5.016
		c-0.216,0.219-0.248,0.686-0.249,1.039c-0.016,4.387-0.031,8.774,0.007,13.162c0.007,0.82-0.208,1.07-1.047,1.055
		c-2.756-0.053-5.513-0.02-8.354-0.02c0-19.324,0-38.605,0-57.957c3.069,0,6.15,0,9.338,0
		C253.817,148.689,253.817,159.482,253.817,170.416z"/>
	<path fill-rule="evenodd" clip-rule="evenodd" fill="#FFFFFF" d="M195.122,177.209c-5.121,0-10.221,0-15.32,0
		c-5.104,0-10.208,0-15.506,0c0.087,0.957,0.132,1.845,0.254,2.722c0.681,4.905,3.82,8.401,8.494,9.308
		c2.231,0.434,4.489,0.326,6.678-0.383c2.759-0.895,4.5-2.863,5.572-5.469c0.251-0.61,0.54-0.85,1.219-0.837
		c2.381,0.045,4.763,0.017,7.144,0.02c0.277,0.001,0.554,0.028,0.917,0.048c-0.492,2.627-1.533,4.934-3.1,7
		c-3.159,4.168-7.435,6.427-12.546,7.13c-3.663,0.504-7.315,0.365-10.851-0.839c-5.583-1.902-9.566-5.586-11.522-11.154
		c-2.792-7.951-2.575-15.801,2.017-23.076c3.732-5.914,9.251-8.828,16.335-9.057c9.312-0.3,17.708,6.183,19.905,16.397
		C195.387,171.688,195.627,174.385,195.122,177.209z M185.666,171.054c-0.373-5.976-4.588-11.77-12.284-10.788
		c-4.926,0.627-9.744,6.359-8.907,10.788C171.51,171.054,178.552,171.054,185.666,171.054z"/>
	<path fill-rule="evenodd" clip-rule="evenodd" fill="#FFFFFF" d="M58.7,197.094c-5.729-0.029-10.82-1.666-15.029-5.631
		c-3.061-2.885-4.835-6.51-5.679-10.585c-1.183-5.716-0.903-11.343,1.503-16.724c2.747-6.143,7.604-9.771,14.121-11.059
		c4.672-0.922,9.36-0.732,13.846,1.091c6.446,2.621,10.296,7.505,11.801,14.192c1.344,5.975,1.042,11.894-1.615,17.51
		c-2.813,5.947-7.65,9.364-14.019,10.655C62.015,196.871,60.344,196.918,58.7,197.094z M70.499,174.834
		c0.048-2.398-0.477-5.412-1.406-7.504c-1.89-4.252-4.982-6.912-9.804-7.139c-5.039-0.236-8.694,2.041-10.729,6.543
		c-2.547,5.635-2.479,11.395,0.397,16.916c3.99,7.655,14.513,7.572,18.799,1.07C69.738,181.713,70.451,178.371,70.499,174.834z"/>
	<path fill-rule="evenodd" clip-rule="evenodd" fill="#FFFFFF" d="M235.893,165.682c-3.304,0-6.519,0-9.723,0
		c-0.053-0.059-0.121-0.098-0.131-0.148c-0.6-3.104-2.653-4.605-5.618-5.1c-2.631-0.438-5.242-0.417-7.762,0.562
		c-2.161,0.841-3.127,2.584-2.334,4.508c0.342,0.83,1.083,1.742,1.874,2.094c2.011,0.89,4.124,1.592,6.25,2.171
		c3.341,0.909,6.759,1.542,10.083,2.503c3.011,0.871,5.596,2.5,7.307,5.261c2.454,3.96,2.438,11.528-3.777,15.784
		c-2.801,1.918-5.933,2.953-9.254,3.373c-4.672,0.592-9.305,0.449-13.788-1.234c-5.699-2.141-9.062-6.766-9.267-12.764
		c-0.004-0.121,0.035-0.242,0.075-0.5c0.488,0,0.976,0,1.465,0c2.382,0,4.765,0.006,7.147-0.004
		c0.447-0.002,0.792,0.027,0.855,0.598c0.396,3.566,2.557,5.537,5.91,6.271c3.273,0.717,6.544,0.578,9.688-0.66
		c2.447-0.963,3.478-3.084,2.755-5.426c-0.383-1.244-1.299-2.045-2.386-2.66c-2.157-1.223-4.561-1.666-6.945-2.17
		c-3.726-0.789-7.493-1.438-11.002-3.012c-6.185-2.775-7.739-8.58-6.144-13.869c0.914-3.028,3.206-4.934,5.92-6.363
		c2.565-1.35,5.357-1.918,8.202-2.141c4.083-0.318,8.145-0.172,12.004,1.436c4.649,1.936,7.529,5.354,8.484,10.334
		C235.85,164.885,235.853,165.256,235.893,165.682z"/>
	<path fill-rule="evenodd" clip-rule="evenodd" fill="#FFFFFF" d="M16.469,195.768c0-11.672,0-23.229,0-34.884
		c-2.281,0-4.49,0-6.796,0c0-2.39,0-4.681,0-7.067c2.23,0,4.439,0,6.796,0c0-0.518-0.021-0.943,0.004-1.367
		c0.132-2.215,0.042-4.473,0.462-6.633c0.974-4.998,3.925-7.602,9.061-7.932c2.667-0.17,5.366,0.157,8.049,0.304
		c0.251,0.014,0.69,0.34,0.694,0.528c0.048,2.312,0.031,4.625,0.031,6.881c-1.637-0.093-3.188-0.271-4.736-0.248
		c-2.616,0.038-3.853,1.206-4.081,3.683c-0.045,0.497-0.016,1.003-0.016,1.503c-0.001,1.033,0,2.066,0,3.229
		c2.613,0,5.191,0,7.827,0c0,2.398,0,4.669,0,7.035c-2.574,0-5.128,0-7.798,0c0,11.699,0,23.303,0,34.969
		C22.768,195.768,19.688,195.768,16.469,195.768z"/>
	<path fill-rule="evenodd" clip-rule="evenodd" fill="#FFFFFF" d="M97.302,195.775c-3.123,0-6.181,0-9.317,0
		c0-19.281,0-38.559,0-57.904c3.081,0,6.161,0,9.317,0C97.302,157.15,97.302,176.4,97.302,195.775z"/>
	<path fill-rule="evenodd" clip-rule="evenodd" fill="#FFFFFF" d="M63.225,31.17c6.297,0,12.597,0.08,18.893-0.031
		c3.831-0.067,7.561,2.733,8.105,6.887c0.586,4.477-1.919,8.158-6.166,9.199c-0.598,0.147-1.234,0.197-1.853,0.198
		c-11.28,0.011-22.559,0.009-33.839,0.009c-1.657,0-3.318,0.076-4.97-0.016c-4.402-0.244-7.688-3.986-7.575-8.543
		c0.102-4.146,3.713-7.684,7.948-7.703c6.486-0.028,12.972-0.007,19.458-0.007C63.225,31.165,63.225,31.168,63.225,31.17z"/>
	<path fill-rule="evenodd" clip-rule="evenodd" fill="#FFFFFF" d="M53.536,52.234c3.226,0,6.453-0.013,9.679,0.004
		c4.298,0.021,7.768,3.477,7.949,7.891c0.173,4.23-3.051,7.956-7.249,8.369c-0.497,0.049-0.998,0.085-1.497,0.086
		c-5.983,0.005-11.965,0.012-17.948-0.001c-3.514-0.007-6.303-1.397-7.872-4.62c-2.347-4.818,0.661-11.607,7.259-11.723
		c3.225-0.056,6.453-0.01,9.679-0.01C53.536,52.232,53.536,52.232,53.536,52.234z"/>
	<path fill-rule="evenodd" clip-rule="evenodd" fill="#FFFFFF" d="M44.023,89.631c-4.51,0.007-8.196-3.661-8.205-8.162
		c-0.008-4.523,3.579-8.172,8.04-8.178c4.702-0.007,8.391,3.584,8.376,8.153C52.22,85.931,48.515,89.625,44.023,89.631z"/>
</g>
</svg>
